<svg viewBox="0 0 55.867 55.867" height="20" width="20">
  <g width="52" height="52" viewBox="0 0 52 52" fill="none" xmlns="http://www.w3.org/2000/svg">
  <path d="M32.0668 13.8665C33.1952 13.8665 34.1485 14.5936 34.5073 15.5998H43.4929C43.8517 14.5936 44.805 13.8665 45.9334 13.8665C47.3669 13.8665 48.5334 15.033 48.5334 16.4664C48.5334 17.8999 47.3669 19.0664 45.9334 19.0664C44.805 19.0664 43.8517 18.3392 43.4929 17.3331H34.5064C34.1476 18.3392 33.1943 19.0664 32.0659 19.0664C30.6324 19.0664 29.4659 17.8999 29.4659 16.4664C29.4659 15.033 30.6333 13.8665 32.0668 13.8665ZM45.9334 17.3331C46.411 17.3331 46.8001 16.9448 46.8001 16.4664C46.8001 15.988 46.411 15.5998 45.9334 15.5998C45.4559 15.5998 45.0668 15.988 45.0668 16.4664C45.0668 16.9448 45.4559 17.3331 45.9334 17.3331ZM32.0668 17.3331C32.5443 17.3331 32.9334 16.9448 32.9334 16.4664C32.9334 15.988 32.5443 15.5998 32.0668 15.5998C31.5892 15.5998 31.2001 15.988 31.2001 16.4664C31.2001 16.9448 31.5892 17.3331 32.0668 17.3331Z" fill="#00B2FF"/>
  <path d="M25.1333 19.2259V13.8665C25.1333 13.636 25.2243 13.4158 25.3872 13.2538L28.8539 9.78716C29.0159 9.62423 29.2369 9.53323 29.4666 9.53323H32.2261C32.5849 8.52705 33.5382 7.79993 34.6666 7.79993C36.1001 7.79993 37.2666 8.96644 37.2666 10.3999C37.2666 11.8333 36.1001 12.9998 34.6666 12.9998C33.5382 12.9998 32.5849 12.2727 32.2261 11.2665H29.8254L26.8666 14.2253V19.2259C27.8728 19.5847 28.5999 20.538 28.5999 21.6664C28.5999 23.0998 27.4334 24.2663 25.9999 24.2663C24.5665 24.2663 23.3999 23.0998 23.3999 21.6664C23.3999 20.538 24.1271 19.5847 25.1333 19.2259ZM34.6666 11.2665C35.1441 11.2665 35.5333 10.8783 35.5333 10.3999C35.5333 9.92149 35.1441 9.53323 34.6666 9.53323C34.1891 9.53323 33.7999 9.92149 33.7999 10.3999C33.7999 10.8783 34.1891 11.2665 34.6666 11.2665ZM25.9999 22.533C26.4775 22.533 26.8666 22.1448 26.8666 21.6664C26.8666 21.188 26.4775 20.7997 25.9999 20.7997C25.5224 20.7997 25.1333 21.188 25.1333 21.6664C25.1333 22.1448 25.5224 22.533 25.9999 22.533Z" fill="#00B2FF"/>
  <path d="M9.53333 22.533C9.93373 22.533 10.3081 22.6309 10.647 22.7938L12.1333 21.3075V12.9998C12.1333 12.7693 12.2243 12.5491 12.3873 12.3871L21.0609 3.7136C20.8979 3.37474 20.8 3.00035 20.8 2.59996C20.8 1.16651 21.9665 0 23.4 0C24.8335 0 26 1.16651 26 2.59996C26 4.0334 24.8335 5.19991 23.4 5.19991C22.9996 5.19991 22.6252 5.10198 22.2863 4.93905L13.8667 13.3586V21.6663C13.8667 21.8968 13.7757 22.117 13.6127 22.279L11.8725 24.0193C12.0354 24.3581 12.1333 24.7325 12.1333 25.1329C12.1333 26.5664 10.9668 27.7329 9.53333 27.7329C8.09986 27.7329 6.93333 26.5664 6.93333 25.1329C6.93333 23.6995 8.09986 22.533 9.53333 22.533ZM23.4 3.46661C23.8775 3.46661 24.2667 3.07835 24.2667 2.59996C24.2667 2.12156 23.8775 1.7333 23.4 1.7333C22.9225 1.7333 22.5333 2.12156 22.5333 2.59996C22.5333 3.07835 22.9225 3.46661 23.4 3.46661ZM9.53333 25.9996C10.0109 25.9996 10.4 25.6113 10.4 25.1329C10.4 24.6545 10.0109 24.2663 9.53333 24.2663C9.0558 24.2663 8.66667 24.6545 8.66667 25.1329C8.66667 25.6113 9.0558 25.9996 9.53333 25.9996Z" fill="#00B2FF"/>
  <path d="M1.73328 12.2926V8.66652C1.73328 8.43599 1.82428 8.21586 1.98722 8.0538L8.05388 1.98723C8.21595 1.8243 8.43695 1.7333 8.66662 1.7333H13.1594C13.5182 0.727121 14.4716 0 15.6 0C17.0334 0 18.2 1.16651 18.2 2.59996C18.2 4.0334 17.0334 5.19991 15.6 5.19991C14.4716 5.19991 13.5182 4.47279 13.1594 3.46661H9.02542L3.46662 9.02532V12.2926C4.47282 12.6514 5.19995 13.6047 5.19995 14.7331C5.19995 16.1665 4.03342 17.333 2.59995 17.333C1.16648 17.333 -4.95911e-05 16.1665 -4.95911e-05 14.7331C-4.95911e-05 13.6047 0.727085 12.6514 1.73328 12.2926ZM15.6 3.46661C16.0775 3.46661 16.4666 3.07835 16.4666 2.59996C16.4666 2.12156 16.0775 1.7333 15.6 1.7333C15.1224 1.7333 14.7333 2.12156 14.7333 2.59996C14.7333 3.07835 15.1224 3.46661 15.6 3.46661ZM2.59995 15.5997C3.07748 15.5997 3.46662 15.2115 3.46662 14.7331C3.46662 14.2547 3.07748 13.8664 2.59995 13.8664C2.12242 13.8664 1.73328 14.2547 1.73328 14.7331C1.73328 15.2115 2.12242 15.5997 2.59995 15.5997Z" fill="#00B2FF"/>
  <path d="M13.8658 46.9595V34.5066C12.8604 34.1478 12.1333 33.1945 12.1333 32.0661C12.1333 30.6327 13.2998 29.4661 14.7333 29.4661C15.8617 29.4661 16.815 30.1933 17.1738 31.1995H26.1594C26.5182 30.1933 27.4716 29.4661 28.6 29.4661C29.7284 29.4661 30.6817 30.1933 31.0405 31.1995H36.0412L39.2608 27.9798C39.0979 27.641 39 27.2666 39 26.8662C39 25.4327 40.1665 24.2662 41.6 24.2662C43.0334 24.2662 44.2 25.4327 44.2 26.8662C44.2 28.2996 43.0334 29.4661 41.6 29.4661C41.1996 29.4661 40.8252 29.3682 40.4863 29.2053L37.0127 32.6788C36.8506 32.8418 36.6296 32.9328 36.4 32.9328H31.0405C30.6817 33.9389 29.7284 34.6661 28.6 34.6661C27.4716 34.6661 26.5182 33.9389 26.1594 32.9328H17.173C16.9112 33.6668 16.3332 34.2449 15.5991 34.5066V46.9595C16.6053 47.3183 17.3324 48.2716 17.3324 49.4C17.3324 50.8335 16.1659 52 14.7324 52C13.299 52 12.1324 50.8335 12.1324 49.4C12.1324 48.2716 12.8596 47.3183 13.8658 46.9595ZM41.6 27.7328C42.0775 27.7328 42.4666 27.3446 42.4666 26.8662C42.4666 26.3878 42.0775 25.9995 41.6 25.9995C41.1224 25.9995 40.7333 26.3878 40.7333 26.8662C40.7333 27.3446 41.1224 27.7328 41.6 27.7328ZM28.6 32.9328C29.0775 32.9328 29.4666 32.5445 29.4666 32.0661C29.4666 31.5877 29.0775 31.1995 28.6 31.1995C28.1224 31.1995 27.7333 31.5877 27.7333 32.0661C27.7333 32.5445 28.1224 32.9328 28.6 32.9328ZM14.7333 50.2658C15.2108 50.2658 15.6 49.8775 15.6 49.3991C15.6 48.9208 15.2108 48.5325 14.7333 48.5325C14.2558 48.5325 13.8666 48.9208 13.8666 49.3991C13.8666 49.8775 14.2558 50.2658 14.7333 50.2658ZM14.7333 32.9328C15.2108 32.9328 15.6 32.5445 15.6 32.0661C15.6 31.5877 15.2108 31.1995 14.7333 31.1995C14.2558 31.1995 13.8666 31.5877 13.8666 32.0661C13.8666 32.5445 14.2558 32.9328 14.7333 32.9328Z" fill="#00B2FF"/>
  <path d="M18.2 17.4925V14.7331C18.2 14.5026 18.291 14.2824 18.4539 14.1204L28.8609 3.7136C28.6979 3.37474 28.6 3.00035 28.6 2.59996C28.6 1.16651 29.7665 0 31.2 0C32.3284 0 33.2817 0.727121 33.6405 1.7333H37.2667C37.7451 1.7333 38.1333 2.1207 38.1333 2.59996V4.84112L41.353 8.06073C41.6919 7.8978 42.0663 7.79987 42.4667 7.79987C43.9001 7.79987 45.0667 8.96638 45.0667 10.3998C45.0667 11.8333 43.9001 12.9998 42.4667 12.9998C41.0332 12.9998 39.8667 11.8333 39.8667 10.3998C39.8667 9.99943 39.9646 9.62504 40.1275 9.28618L36.6539 5.81264C36.491 5.65057 36.4 5.43044 36.4 5.19991V3.46661H33.6405C33.2817 4.47279 32.3284 5.19991 31.2 5.19991C30.7996 5.19991 30.4252 5.10198 30.0863 4.93905L19.9333 15.0919V17.4925C20.9395 17.8513 21.6667 18.8046 21.6667 19.933C21.6667 21.3664 20.5001 22.533 19.0667 22.533C17.6332 22.533 16.4667 21.3664 16.4667 19.933C16.4667 18.8046 17.1938 17.8513 18.2 17.4925ZM42.4667 11.2665C42.9442 11.2665 43.3333 10.8782 43.3333 10.3998C43.3333 9.92143 42.9442 9.53317 42.4667 9.53317C41.9891 9.53317 41.6 9.92143 41.6 10.3998C41.6 10.8782 41.9891 11.2665 42.4667 11.2665ZM31.2 3.46661C31.6775 3.46661 32.0667 3.07835 32.0667 2.59996C32.0667 2.12156 31.6775 1.7333 31.2 1.7333C30.7225 1.7333 30.3333 2.12156 30.3333 2.59996C30.3333 3.07835 30.7225 3.46661 31.2 3.46661ZM19.0667 20.7997C19.5442 20.7997 19.9333 20.4114 19.9333 19.933C19.9333 19.4546 19.5442 19.0663 19.0667 19.0663C18.5891 19.0663 18.2 19.4546 18.2 19.933C18.2 20.4114 18.5891 20.7997 19.0667 20.7997Z" fill="#00B2FF"/>
  <path d="M20.8 24.2663C21.9284 24.2663 22.8817 24.9934 23.2405 25.9996H33.4412L38.3873 21.0536C38.5493 20.8906 38.7703 20.7997 39 20.7997H48.1745L50.2667 18.7076V11.6253L43.5803 4.93905C43.2415 5.10198 42.8671 5.19991 42.4667 5.19991C41.0332 5.19991 39.8667 4.0334 39.8667 2.59996C39.8667 1.16651 41.0332 0 42.4667 0C43.9001 0 45.0667 1.16651 45.0667 2.59996C45.0667 3.00035 44.9687 3.37474 44.8058 3.7136L51.7461 10.6538C51.909 10.8158 52 11.0359 52 11.2665V19.0663C52 19.2969 51.909 19.517 51.7461 19.6791L49.1461 22.279C48.984 22.442 48.763 22.533 48.5333 22.533H39.3588L34.4127 27.4789C34.2507 27.6419 34.0297 27.7329 33.8 27.7329H23.2405C22.8817 28.7391 21.9284 29.4662 20.8 29.4662C19.3665 29.4662 18.2 28.2997 18.2 26.8662C18.2 25.4328 19.3665 24.2663 20.8 24.2663ZM42.4667 1.7333C41.9891 1.7333 41.6 2.12156 41.6 2.59996C41.6 3.07835 41.9891 3.46661 42.4667 3.46661C42.9442 3.46661 43.3333 3.07835 43.3333 2.59996C43.3333 2.12156 42.9442 1.7333 42.4667 1.7333ZM20.8 27.7329C21.2775 27.7329 21.6667 27.3446 21.6667 26.8662C21.6667 26.3878 21.2775 25.9996 20.8 25.9996C20.3225 25.9996 19.9333 26.3878 19.9333 26.8662C19.9333 27.3446 20.3225 27.7329 20.8 27.7329Z" fill="#00B2FF"/>
  <path d="M2.59997 20.7997C3.00037 20.7997 3.37477 20.8976 3.71363 21.0606L6.9333 17.841V12.8404C5.9271 12.4816 5.19997 11.5283 5.19997 10.3999C5.19997 8.96644 6.3665 7.79993 7.79997 7.79993C9.23343 7.79993 10.4 8.96644 10.4 10.3999C10.4 11.5283 9.67283 12.4816 8.66663 12.8404V18.1998C8.66663 18.4303 8.57563 18.6504 8.4127 18.8125L4.9391 22.286C5.10204 22.6249 5.19997 22.9993 5.19997 23.3997C5.19997 24.528 4.47283 25.4814 3.46663 25.8402V26.5075L10.146 33.1868C10.309 33.3488 10.4 33.569 10.4 33.7995V34.8256C11.4062 35.1844 12.1333 36.1377 12.1333 37.2661C12.1333 38.3945 11.4062 39.3478 10.4 39.7066V41.7597C11.4062 42.1185 12.1333 43.0718 12.1333 44.2002C12.1333 45.6336 10.9668 46.8001 9.5333 46.8001C8.09983 46.8001 6.9333 45.6336 6.9333 44.2002C6.9333 43.0718 7.66043 42.1185 8.66663 41.7597V39.7066C7.66043 39.3478 6.9333 38.3945 6.9333 37.2661C6.9333 36.1377 7.66043 35.1844 8.66663 34.8256V34.1583L1.98723 27.479C1.8243 27.3169 1.7333 27.0968 1.7333 26.8663V25.8402C0.7271 25.4814 -3.24249e-05 24.528 -3.24249e-05 23.3997C-3.24249e-05 21.9662 1.1665 20.7997 2.59997 20.7997ZM7.79997 11.2665C8.2775 11.2665 8.66663 10.8783 8.66663 10.3999C8.66663 9.92149 8.2775 9.53323 7.79997 9.53323C7.32243 9.53323 6.9333 9.92149 6.9333 10.3999C6.9333 10.8783 7.32243 11.2665 7.79997 11.2665ZM9.5333 45.066C10.0108 45.066 10.4 44.6777 10.4 44.1993C10.4 43.7209 10.0108 43.3327 9.5333 43.3327C9.05577 43.3327 8.66663 43.7209 8.66663 44.1993C8.66663 44.6777 9.05577 45.066 9.5333 45.066ZM9.5333 38.1328C10.0108 38.1328 10.4 37.7445 10.4 37.2661C10.4 36.7877 10.0108 36.3995 9.5333 36.3995C9.05577 36.3995 8.66663 36.7877 8.66663 37.2661C8.66663 37.7445 9.05577 38.1328 9.5333 38.1328ZM2.59997 24.2663C3.0775 24.2663 3.46663 23.8781 3.46663 23.3997C3.46663 22.9213 3.0775 22.533 2.59997 22.533C2.12243 22.533 1.7333 22.9213 1.7333 23.3997C1.7333 23.8781 2.12243 24.2663 2.59997 24.2663Z" fill="#00B2FF"/>
  </g>
  <g width="133" height="20" viewBox="0 0 133 20" fill="none" xmlns="http://www.w3.org/2000/svg">
  <path d="M8.93555 14.3369C8.93555 13.6126 8.74837 13.0674 8.37402 12.7012C8.00781 12.3268 7.33643 11.9403 6.35986 11.5415C4.57764 10.866 3.2959 10.0767 2.51465 9.17334C1.7334 8.26188 1.34277 7.18766 1.34277 5.95068C1.34277 4.45329 1.87174 3.25293 2.92969 2.34961C3.99577 1.43815 5.34668 0.982422 6.98242 0.982422C8.07292 0.982422 9.04541 1.21436 9.8999 1.67822C10.7544 2.13395 11.4095 2.78092 11.8652 3.61914C12.3291 4.45736 12.561 5.40951 12.561 6.47559H8.98438C8.98438 5.64551 8.80534 5.01481 8.44727 4.5835C8.09733 4.14404 7.5887 3.92432 6.92139 3.92432C6.29476 3.92432 5.80648 4.11149 5.45654 4.48584C5.10661 4.85205 4.93164 5.34847 4.93164 5.9751C4.93164 6.46338 5.12695 6.9069 5.51758 7.30566C5.9082 7.69629 6.59993 8.10319 7.59277 8.52637C9.32617 9.15299 10.5835 9.92204 11.3647 10.8335C12.1541 11.745 12.5488 12.9046 12.5488 14.3125C12.5488 15.8587 12.0565 17.0672 11.0718 17.938C10.0871 18.8088 8.74837 19.2441 7.05566 19.2441C5.9082 19.2441 4.86247 19.0081 3.91846 18.5361C2.97445 18.0641 2.23389 17.3887 1.69678 16.5098C1.16781 15.6309 0.90332 14.5933 0.90332 13.397H4.50439C4.50439 14.4224 4.70378 15.167 5.10254 15.6309C5.5013 16.0947 6.15234 16.3267 7.05566 16.3267C8.30892 16.3267 8.93555 15.6634 8.93555 14.3369ZM18.0054 5.79199L18.103 7.0127C18.8761 6.03613 19.8975 5.54785 21.167 5.54785C22.4854 5.54785 23.4172 6.14193 23.9624 7.33008C24.7192 6.14193 25.7975 5.54785 27.1973 5.54785C29.5085 5.54785 30.6925 7.14697 30.7495 10.3452V19H27.2949V10.5649C27.2949 9.79997 27.1891 9.25472 26.9775 8.9292C26.766 8.60368 26.4079 8.44092 25.9033 8.44092C25.2604 8.44092 24.7803 8.83561 24.4629 9.625L24.4873 10.04V19H21.0327V10.5894C21.0327 9.83252 20.931 9.28727 20.7275 8.95361C20.5241 8.61182 20.1619 8.44092 19.6411 8.44092C19.047 8.44092 18.575 8.76237 18.2251 9.40527V19H14.7705V5.79199H18.0054ZM39.5874 19C39.4897 18.7965 39.3921 18.4548 39.2944 17.9746C38.6759 18.821 37.8377 19.2441 36.7798 19.2441C35.673 19.2441 34.7534 18.8779 34.021 18.1455C33.2967 17.4131 32.9346 16.465 32.9346 15.3013C32.9346 13.9178 33.374 12.8477 34.2529 12.0908C35.14 11.334 36.4136 10.9474 38.0737 10.9312H39.1235V9.86914C39.1235 9.27507 39.0218 8.85596 38.8184 8.61182C38.6149 8.36768 38.3179 8.24561 37.9272 8.24561C37.0646 8.24561 36.6333 8.75016 36.6333 9.75928H33.1787C33.1787 8.53857 33.6344 7.53353 34.5459 6.74414C35.4655 5.94661 36.6252 5.54785 38.0249 5.54785C39.4735 5.54785 40.5924 5.92627 41.3818 6.68311C42.1794 7.4318 42.5781 8.50602 42.5781 9.90576V16.1191C42.5944 17.2585 42.7572 18.1496 43.0664 18.7925V19H39.5874ZM37.5488 16.5342C37.9313 16.5342 38.2568 16.4569 38.5254 16.3022C38.7939 16.1476 38.9933 15.9645 39.1235 15.7529V13.0063H38.2935C37.7075 13.0063 37.2437 13.1935 36.9019 13.5679C36.5682 13.9422 36.4014 14.4427 36.4014 15.0693C36.4014 16.0459 36.7839 16.5342 37.5488 16.5342ZM51.5991 9.12451L50.4517 9.02686C49.5076 9.02686 48.8688 9.44189 48.5352 10.272V19H45.0684V5.79199H48.3276L48.4253 7.22021C48.9705 6.10531 49.7233 5.54785 50.6836 5.54785C51.0742 5.54785 51.3916 5.60075 51.6357 5.70654L51.5991 9.12451ZM58.0078 2.54492V5.79199H59.7778V8.39209H58.0078V14.9473C58.0078 15.4681 58.077 15.8262 58.2153 16.0215C58.3618 16.2168 58.6385 16.3145 59.0454 16.3145C59.3791 16.3145 59.6517 16.286 59.8633 16.229L59.8389 18.9146C59.2529 19.1343 58.6182 19.2441 57.9346 19.2441C55.7048 19.2441 54.5776 17.9665 54.5532 15.4111V8.39209H53.0273V5.79199H54.5532V2.54492H58.0078ZM67.6147 19V1.22656H72.3145C74.3896 1.22656 76.0417 1.88574 77.2705 3.2041C78.5075 4.52246 79.1382 6.3291 79.1626 8.62402V11.5049C79.1626 13.8405 78.5441 15.6756 77.3071 17.0103C76.0783 18.3368 74.3815 19 72.2168 19H67.6147ZM71.2036 4.21729V16.0215H72.2778C73.4741 16.0215 74.3164 15.7082 74.8047 15.0815C75.293 14.4468 75.5493 13.3563 75.5737 11.8101V8.72168C75.5737 7.06152 75.3418 5.90592 74.8779 5.25488C74.4141 4.5957 73.6247 4.24984 72.5098 4.21729H71.2036ZM86.9141 19.2441C85.14 19.2441 83.7565 18.7152 82.7637 17.6572C81.7708 16.5993 81.2744 15.0856 81.2744 13.1162V12.0664C81.2744 9.98307 81.7301 8.37581 82.6416 7.24463C83.5531 6.11344 84.8592 5.54785 86.5601 5.54785C88.2202 5.54785 89.4694 6.08089 90.3076 7.14697C91.1458 8.20492 91.5731 9.77555 91.5894 11.8589V13.5557H84.7168C84.7656 14.5322 84.9813 15.2484 85.3638 15.7041C85.7463 16.1517 86.3363 16.3755 87.1338 16.3755C88.2894 16.3755 89.2537 15.9808 90.0269 15.1914L91.3818 17.2788C90.9587 17.8647 90.3442 18.3408 89.5386 18.707C88.7329 19.0651 87.8581 19.2441 86.9141 19.2441ZM84.7412 11.1387H88.1958V10.8213C88.1795 10.0319 88.0493 9.43376 87.8052 9.02686C87.561 8.61995 87.1379 8.4165 86.5356 8.4165C85.9334 8.4165 85.494 8.63216 85.2173 9.06348C84.9487 9.49479 84.79 10.1865 84.7412 11.1387ZM97.7051 14.1172L99.3774 5.79199H102.979L99.353 19H96.0571L92.4194 5.79199H96.0327L97.7051 14.1172ZM108.228 19H104.761V5.79199H108.228V19ZM104.602 2.37402C104.602 1.83691 104.773 1.39746 105.115 1.05566C105.457 0.713867 105.912 0.542969 106.482 0.542969C107.052 0.542969 107.507 0.713867 107.849 1.05566C108.191 1.39746 108.362 1.83691 108.362 2.37402C108.362 2.90299 108.191 3.34245 107.849 3.69238C107.515 4.04232 107.06 4.21729 106.482 4.21729C105.904 4.21729 105.444 4.04232 105.103 3.69238C104.769 3.34245 104.602 2.90299 104.602 2.37402ZM115.674 16.3755C116.675 16.3755 117.183 15.7244 117.2 14.4224H120.447C120.431 15.8628 119.987 17.0265 119.116 17.9136C118.245 18.8006 117.122 19.2441 115.747 19.2441C114.046 19.2441 112.748 18.7152 111.853 17.6572C110.958 16.5993 110.502 15.0409 110.486 12.9819V11.9321C110.486 9.85693 110.925 8.27409 111.804 7.18359C112.691 6.0931 113.997 5.54785 115.723 5.54785C117.179 5.54785 118.327 5.99951 119.165 6.90283C120.003 7.79801 120.431 9.07161 120.447 10.7236H117.2C117.192 9.98307 117.069 9.41341 116.833 9.01465C116.597 8.61589 116.207 8.4165 115.662 8.4165C115.059 8.4165 114.628 8.63216 114.368 9.06348C114.107 9.48665 113.969 10.3127 113.953 11.5415V12.8843C113.953 13.9585 114.006 14.7113 114.111 15.1426C114.217 15.5658 114.392 15.8791 114.636 16.0825C114.88 16.2778 115.226 16.3755 115.674 16.3755ZM127.734 19.2441C125.96 19.2441 124.577 18.7152 123.584 17.6572C122.591 16.5993 122.095 15.0856 122.095 13.1162V12.0664C122.095 9.98307 122.55 8.37581 123.462 7.24463C124.373 6.11344 125.68 5.54785 127.38 5.54785C129.041 5.54785 130.29 6.08089 131.128 7.14697C131.966 8.20492 132.393 9.77555 132.41 11.8589V13.5557H125.537C125.586 14.5322 125.802 15.2484 126.184 15.7041C126.567 16.1517 127.157 16.3755 127.954 16.3755C129.11 16.3755 130.074 15.9808 130.847 15.1914L132.202 17.2788C131.779 17.8647 131.165 18.3408 130.359 18.707C129.553 19.0651 128.678 19.2441 127.734 19.2441ZM125.562 11.1387H129.016V10.8213C129 10.0319 128.87 9.43376 128.625 9.02686C128.381 8.61995 127.958 8.4165 127.356 8.4165C126.754 8.4165 126.314 8.63216 126.038 9.06348C125.769 9.49479 125.61 10.1865 125.562 11.1387Z" fill="white"/>
  </g>
</svg>
